HIERARCHY
ROOT Hips
{
	OFFSET 0.000000 0.000000 0.000000
	CHANNELS 6 Xposition Yposition Zposition Xrotation Yrotation Zrotation
	JOINT LeftUpLeg_virtual
	{
		OFFSET 0.000000 0.000000 0.000000
		CHANNELS 3 Xrotation Yrotation Zrotation
		JOINT LeftUpLeg
		{
			OFFSET 11.394100 -6.187798 -0.413800
			CHANNELS 3 Xrotation Yrotation Zrotation
			JOINT LeftLeg
			{
				OFFSET 0.430247 -32.302673 3.732800
				CHANNELS 3 Xrotation Yrotation Zrotation
				JOINT LeftFoot
				{
					OFFSET -0.430247 -48.264931 -6.423300
					CHANNELS 3 Xrotation Yrotation Zrotation
					JOINT LeftToeBase
					{
						OFFSET 4.230900 -16.068199 23.438400
						CHANNELS 3 Xrotation Yrotation Zrotation
						JOINT LeftToe_End
						{
							OFFSET 4.510700 0.695400 19.974600
							CHANNELS 3 Xrotation Yrotation Zrotation
							End Site
							{
								OFFSET 0 0 0
							}
						}
					}
				}
			}
		}
	}
	JOINT RightUpLeg_virtual
	{
		OFFSET 0.000000 0.000000 0.000000
		CHANNELS 3 Xrotation Yrotation Zrotation
		JOINT RightUpLeg
		{
			OFFSET -11.333700 -6.187798 -0.413800
			CHANNELS 3 Xrotation Yrotation Zrotation
			JOINT RightLeg
			{
				OFFSET -0.430392 -32.302628 3.733000
				CHANNELS 3 Xrotation Yrotation Zrotation
				JOINT RightFoot
				{
					OFFSET 0.430392 -48.264973 -6.423500
					CHANNELS 3 Xrotation Yrotation Zrotation
					JOINT RightToeBase
					{
						OFFSET -4.230900 -16.068199 23.438400
						CHANNELS 3 Xrotation Yrotation Zrotation
						JOINT RightToe_End
						{
							OFFSET -4.510700 0.695400 19.974600
							CHANNELS 3 Xrotation Yrotation Zrotation
							End Site
							{
								OFFSET 0 0 0
							}
						}
					}
				}
			}
		}
	}
	JOINT Spine_virtual
	{
		OFFSET 0.000000 0.000000 0.000000
		CHANNELS 3 Xrotation Yrotation Zrotation
		JOINT Spine
		{
			OFFSET -0.002400 12.777504 0.315300
			CHANNELS 3 Xrotation Yrotation Zrotation
			JOINT Spine1
			{
				OFFSET -0.002067 5.816869 0.032633
				CHANNELS 3 Xrotation Yrotation Zrotation
				JOINT Spine1_split
				{
					OFFSET -0.002067 5.816869 0.032633
					CHANNELS 3 Xrotation Yrotation Zrotation
					JOINT Spine2
					{
						OFFSET -0.002067 5.816869 0.032633
						CHANNELS 3 Xrotation Yrotation Zrotation
						JOINT Neck_virtual
						{
							OFFSET 0.000000 0.000000 0.000000
							CHANNELS 3 Xrotation Yrotation Zrotation
							JOINT Neck
							{
								OFFSET -0.003700 21.199493 -0.826900
								CHANNELS 3 Xrotation Yrotation Zrotation
								JOINT Head
								{
									OFFSET 0.000000 20.442200 4.834800
									CHANNELS 3 Xrotation Yrotation Zrotation
									JOINT HeadTop_End
									{
										OFFSET 0.000000 34.668396 4.968400
										CHANNELS 3 Xrotation Yrotation Zrotation
										End Site
										{
											OFFSET 0 0 0
										}
									}
								}
							}
						}
						JOINT LeftShoulder_virtual
						{
							OFFSET 0.000000 0.000000 0.000000
							CHANNELS 3 Xrotation Yrotation Zrotation
							JOINT LeftShoulder
							{
								OFFSET 3.288150 8.794197 -1.372250
								CHANNELS 3 Xrotation Yrotation Zrotation
								JOINT LeftShoulder_split
								{
									OFFSET 3.288150 8.794197 -1.372250
									CHANNELS 3 Xrotation Yrotation Zrotation
									JOINT LeftArm
									{
										OFFSET 11.953299 -2.279007 -0.146200
										CHANNELS 3 Xrotation Yrotation Zrotation
										JOINT LeftForeArm
										{
											OFFSET 18.448900 0.000000 0.000000
											CHANNELS 3 Xrotation Yrotation Zrotation
											JOINT LeftHand
											{
												OFFSET 29.527798 0.000000 0.000000
												CHANNELS 3 Xrotation Yrotation Zrotation
												End Site
												{
													OFFSET 0 0 0
												}
											}
										}
									}
								}
							}
						}
						JOINT RightShoulder_virtual
						{
							OFFSET 0.000000 0.000000 0.000000
							CHANNELS 3 Xrotation Yrotation Zrotation
							JOINT RightShoulder
							{
								OFFSET -3.249400 8.794197 -1.372250
								CHANNELS 3 Xrotation Yrotation Zrotation
								JOINT RightShoulder_split
								{
									OFFSET -3.249400 8.794197 -1.372250
									CHANNELS 3 Xrotation Yrotation Zrotation
									JOINT RightArm
									{
										OFFSET -11.953299 -2.279007 -0.146200
										CHANNELS 3 Xrotation Yrotation Zrotation
										JOINT RightForeArm
										{
											OFFSET -18.448900 0.000000 0.000000
											CHANNELS 3 Xrotation Yrotation Zrotation
											JOINT RightHand
											{
												OFFSET -29.527802 0.000000 0.000000
												CHANNELS 3 Xrotation Yrotation Zrotation
												End Site
												{
													OFFSET 0 0 0
												}
											}
										}
									}
								}
							}
						}
					}
				}
			}
		}
	}
}
MOTION
Frames: 6
Frame Time: 0.03333333
5.374119 96.034859 1.756027 0.000000 0.000000 0.000000 147.912651 -87.298751 147.870208 -32.037337 34.040290 31.553531 23.801872 -9.248071 1.904870 -1.764614 4.108676 -14.632987 0.479739 -0.458574 -0.499265 0.000000 0.000000 0.000000 156.087444 -87.607633 156.490781 -38.131997 -11.859608 -17.226808 12.568314 9.716520 -5.313567 16.483104 13.347172 15.272057 4.357732 -0.302637 0.244230 0.000000 0.000000 0.000000 43.266496 -88.319018 43.586162 5.991682 -0.258139 -6.430107 1.538437 0.094790 -0.902222 0.812940 0.383911 0.217786 0.000000 0.000000 0.000000 2.053961 -0.378701 -1.316702 -10.391614 4.767338 3.842814 28.985397 75.614361 -32.322648 0.000000 0.000000 0.000000 3.263007 -0.475948 -0.847967 5.531114 -4.682118 11.086763 -1.836002 -3.502708 1.453763 -38.378242 6.019038 4.117108 -4.018097 -10.329103 -0.173760 0.000000 0.000000 0.000000 2.782777 -0.350947 -1.489993 -1.458765 0.497710 -18.549484 2.355327 1.594568 6.779886 -60.725416 54.036085 53.917551 179.727398 41.357769 -178.729139 0.000000 0.000000 0.000000 
5.385771 96.037300 1.779079 0.000000 0.000000 0.000000 148.087012 -87.308259 148.048708 -32.042296 34.033921 31.562745 23.793956 -9.258959 1.903385 -1.776023 4.099358 -14.623206 0.476320 -0.457836 -0.493040 0.000000 0.000000 0.000000 156.024429 -87.643574 156.434910 -38.106247 -11.820041 -17.229936 12.517895 9.718201 -5.314854 16.482484 13.359938 15.311052 4.317790 -0.306986 0.229244 0.000000 0.000000 0.000000 43.457676 -88.336339 43.798270 5.995882 -0.259685 -6.424676 1.535063 0.076265 -0.908041 0.786491 0.302484 0.214092 0.000000 0.000000 0.000000 2.061835 -0.393143 -1.314887 -10.368608 4.755938 3.840471 29.042647 75.682075 -32.407803 0.000000 0.000000 0.000000 3.264358 -0.493095 -0.845858 5.541750 -4.702416 11.121221 -1.772848 -3.482846 1.499551 -38.368017 6.040182 4.102535 -3.983668 -10.355415 -0.157171 0.000000 0.000000 0.000000 2.771647 -0.370110 -1.483753 -1.464100 0.449053 -18.583562 2.310623 1.613075 6.743943 -60.893759 54.107772 53.978838 179.709927 41.292971 -178.729030 0.000000 0.000000 0.000000 
5.393533 96.034447 1.801403 0.000000 0.000000 0.000000 148.228123 -87.322630 148.201690 -32.037159 34.011706 31.548278 23.788466 -9.269333 1.905310 -1.781953 4.097575 -14.629748 0.479848 -0.456042 -0.487019 0.000000 0.000000 0.000000 155.667388 -87.689370 156.082622 -38.071437 -11.812532 -17.248577 12.463429 9.690360 -5.316406 16.431712 13.346351 15.331205 4.333507 -0.302804 0.232701 0.000000 0.000000 0.000000 42.925622 -88.326135 43.288885 6.008320 -0.263363 -6.411021 1.542085 0.038917 -0.912127 0.774115 0.251393 0.227098 0.000000 0.000000 0.000000 2.075380 -0.428791 -1.314666 -10.321700 4.714174 3.859762 29.348906 75.800224 -32.766029 0.000000 0.000000 0.000000 3.275522 -0.533507 -0.845028 5.561820 -4.716933 11.185827 -1.723510 -3.478743 1.579705 -38.374602 6.149799 4.006096 -3.951394 -10.459915 -0.143504 0.000000 0.000000 0.000000 2.772783 -0.410043 -1.474399 -1.471016 0.384200 -18.643652 2.284123 1.607395 6.727553 -61.098323 54.206512 54.039101 179.687497 41.274543 -178.744971 0.000000 0.000000 0.000000 
5.396883 96.026657 1.818748 0.000000 0.000000 0.000000 148.342775 -87.332370 148.331601 -32.019910 33.975021 31.510162 23.783181 -9.276068 1.908946 -1.777941 4.098873 -14.648922 0.488742 -0.452497 -0.484101 0.000000 0.000000 0.000000 155.055854 -87.735925 155.477167 -38.045803 -11.837042 -17.286008 12.418131 9.646219 -5.315685 16.365109 13.315998 15.346962 4.372335 -0.290175 0.245187 0.000000 0.000000 0.000000 41.785943 -88.287531 42.168058 6.027161 -0.270347 -6.391653 1.557316 -0.018993 -0.913905 0.781769 0.229528 0.258895 0.000000 0.000000 0.000000 2.089782 -0.487774 -1.315810 -10.256064 4.646652 3.901196 29.882163 75.969612 -33.371580 0.000000 0.000000 0.000000 3.290832 -0.600199 -0.844912 5.590716 -4.722212 11.286023 -1.699209 -3.485125 1.664863 -38.407554 6.352572 3.844315 -3.926915 -10.616679 -0.129709 0.000000 0.000000 0.000000 2.781747 -0.472417 -1.461958 -1.480878 0.304082 -18.724632 2.268582 1.576357 6.728867 -61.295620 54.299294 54.103452 179.663427 41.310490 -178.773221 0.000000 0.000000 0.000000 
5.395505 96.017662 1.834324 0.000000 0.000000 0.000000 148.326396 -87.336044 148.327926 -31.996602 33.923466 31.454889 23.769787 -9.275310 1.912256 -1.759001 4.095203 -14.674236 0.501875 -0.447355 -0.485959 0.000000 0.000000 0.000000 154.186248 -87.781502 154.613572 -38.037504 -11.884849 -17.342786 12.389376 9.608433 -5.309300 16.308325 13.285037 15.389803 4.380848 -0.272266 0.258349 0.000000 0.000000 0.000000 40.238772 -88.226783 40.635797 6.049357 -0.281090 -6.367102 1.576876 -0.100180 -0.913445 0.795135 0.239388 0.276547 0.000000 0.000000 0.000000 2.098248 -0.571903 -1.317855 -10.175860 4.555959 3.964789 30.586536 76.178445 -34.157926 0.000000 0.000000 0.000000 3.306474 -0.695853 -0.845972 5.628551 -4.715687 11.424710 -1.694887 -3.510914 1.723548 -38.471457 6.633624 3.639110 -3.912607 -10.786109 -0.113914 0.000000 0.000000 0.000000 2.791383 -0.558371 -1.446679 -1.494041 0.208796 -18.823557 2.257645 1.533832 6.735804 -61.474271 54.349113 54.185619 179.644576 41.393921 -178.810350 0.000000 0.000000 0.000000 
5.390798 96.013718 1.843056 0.000000 0.000000 0.000000 147.994504 -87.341556 148.000500 -31.967983 33.855298 31.390139 23.745815 -9.264261 1.913794 -1.724229 4.078349 -14.694783 0.519685 -0.442171 -0.493252 0.000000 0.000000 0.000000 153.092844 -87.827326 153.524293 -38.036634 -11.941974 -17.409995 12.375854 9.591571 -5.299176 16.272613 13.253507 15.468121 4.343047 -0.253259 0.266965 0.000000 0.000000 0.000000 38.511390 -88.151145 38.918008 6.069804 -0.294781 -6.336636 1.595425 -0.208087 -0.912675 0.791872 0.280543 0.274460 0.000000 0.000000 0.000000 2.097048 -0.682925 -1.321912 -10.089149 4.444497 4.045943 31.404998 76.410323 -35.055960 0.000000 0.000000 0.000000 3.319157 -0.820690 -0.847309 5.675586 -4.695695 11.598056 -1.707801 -3.558496 1.760228 -38.565458 6.965453 3.403710 -3.906975 -10.935432 -0.094721 0.000000 0.000000 0.000000 2.794499 -0.670226 -1.428839 -1.511753 0.103593 -18.941938 2.252890 1.487742 6.745874 -61.632786 54.334083 54.307865 179.634959 41.501090 -178.846987 0.000000 0.000000 0.000000 
